<svg width="24" height="24" viewBox="0 0 24 24" fill="none" xmlns="http://www.w3.org/2000/svg">
<g id="TiktokComp">
<path id="Vector" d="M18.1333 3.76C17.2219 2.7195 16.7196 1.38324 16.72 0H12.6V16.5333C12.5682 17.428 12.1905 18.2755 11.5463 18.8973C10.9022 19.519 10.0419 19.8665 9.14663 19.8667C7.2533 19.8667 5.67996 18.32 5.67996 16.4C5.67996 14.1067 7.8933 12.3867 10.1733 13.0933V8.88C5.5733 8.26667 1.54663 11.84 1.54663 16.4C1.54663 20.84 5.22663 24 9.1333 24C13.32 24 16.72 20.6 16.72 16.4V8.01333C18.3906 9.21313 20.3964 9.85686 22.4533 9.85333V5.73333C22.4533 5.73333 19.9466 5.85333 18.1333 3.76Z" fill="white"/>
</g>
</svg>
