<svg width="32" height="33" viewBox="0 0 32 33" fill="none" xmlns="http://www.w3.org/2000/svg">
<g id="InstagramComp" clip-path="url(#clip0_841_4413)">
<path id="Vector" d="M9.28 0.1875H22.72C27.84 0.1875 32 4.3475 32 9.4675V22.9075C32 25.3687 31.0223 27.7291 29.282 29.4695C27.5416 31.2098 25.1812 32.1875 22.72 32.1875H9.28C4.16 32.1875 0 28.0275 0 22.9075V9.4675C0 7.00629 0.977712 4.64589 2.71805 2.90555C4.45839 1.16521 6.81879 0.1875 9.28 0.1875ZM8.96 3.3875C7.43235 3.3875 5.96728 3.99436 4.88707 5.07457C3.80686 6.15478 3.2 7.61985 3.2 9.1475V23.2275C3.2 26.4115 5.776 28.9875 8.96 28.9875H23.04C24.5676 28.9875 26.0327 28.3806 27.1129 27.3004C28.1931 26.2202 28.8 24.7551 28.8 23.2275V9.1475C28.8 5.9635 26.224 3.3875 23.04 3.3875H8.96ZM24.4 5.7875C24.9304 5.7875 25.4391 5.99821 25.8142 6.37329C26.1893 6.74836 26.4 7.25707 26.4 7.7875C26.4 8.31793 26.1893 8.82664 25.8142 9.20171C25.4391 9.57679 24.9304 9.7875 24.4 9.7875C23.8696 9.7875 23.3609 9.57679 22.9858 9.20171C22.6107 8.82664 22.4 8.31793 22.4 7.7875C22.4 7.25707 22.6107 6.74836 22.9858 6.37329C23.3609 5.99821 23.8696 5.7875 24.4 5.7875ZM16 8.1875C18.1217 8.1875 20.1566 9.03036 21.6569 10.5306C23.1571 12.0309 24 14.0658 24 16.1875C24 18.3092 23.1571 20.3441 21.6569 21.8444C20.1566 23.3446 18.1217 24.1875 16 24.1875C13.8783 24.1875 11.8434 23.3446 10.3431 21.8444C8.84286 20.3441 8 18.3092 8 16.1875C8 14.0658 8.84286 12.0309 10.3431 10.5306C11.8434 9.03036 13.8783 8.1875 16 8.1875ZM16 11.3875C14.727 11.3875 13.5061 11.8932 12.6059 12.7934C11.7057 13.6936 11.2 14.9145 11.2 16.1875C11.2 17.4605 11.7057 18.6814 12.6059 19.5816C13.5061 20.4818 14.727 20.9875 16 20.9875C17.273 20.9875 18.4939 20.4818 19.3941 19.5816C20.2943 18.6814 20.8 17.4605 20.8 16.1875C20.8 14.9145 20.2943 13.6936 19.3941 12.7934C18.4939 11.8932 17.273 11.3875 16 11.3875Z" fill="#FFFAFA"/>
</g>
<defs>
<clipPath id="clip0_841_4413">
<rect width="32" height="32" fill="white" transform="translate(0 0.1875)"/>
</clipPath>
</defs>
</svg>
