<svg width="32" height="33" viewBox="0 0 32 33" fill="none" xmlns="http://www.w3.org/2000/svg">
<mask id="mask0_1330_2984" style="mask-type:alpha" maskUnits="userSpaceOnUse" x="0" y="0" width="32" height="33">
<g clip-path="url(#clip0_1330_2984)">
<path d="M29.6396 11.8291C29.7303 12.3224 29.7823 12.8891 29.7823 13.4677C29.7823 14.1771 29.7036 14.8691 29.5556 15.5344L29.5676 15.4717C28.5321 20.7571 25.1689 23.3997 19.4783 23.3997H18.6916C18.6876 23.3997 18.6836 23.3997 18.6783 23.3997C18.3809 23.3997 18.1089 23.5117 17.9036 23.6957L17.9049 23.6944C17.6863 23.8864 17.5316 24.1477 17.4796 24.4451L17.4783 24.4531L17.4063 24.7917L16.4236 30.9704L16.3889 31.2384C16.3343 31.5451 16.1756 31.8077 15.9529 31.9957L15.9516 31.9971C15.7423 32.1811 15.4663 32.2931 15.1636 32.2931C15.1623 32.2931 15.1609 32.2931 15.1596 32.2931H10.6796C10.6703 32.2931 10.6596 32.2944 10.6489 32.2944C10.4236 32.2944 10.2236 32.1904 10.0929 32.0277L10.0916 32.0264C9.98361 31.8904 9.91828 31.7171 9.91828 31.5277C9.91828 31.4784 9.92228 31.4291 9.93161 31.3811L9.93028 31.3864C10.0378 30.7197 10.1956 29.7197 10.4036 28.3864C10.6116 27.0531 10.7694 26.0531 10.8769 25.3864C10.9845 24.7197 11.1454 23.7242 11.3596 22.3997C11.5738 21.0753 11.7347 20.0797 11.8423 19.4131C11.8569 19.0424 12.1596 18.7477 12.5316 18.7477C12.5596 18.7477 12.5863 18.7491 12.6129 18.7531H12.6103H14.9476C15.0983 18.7571 15.2743 18.7597 15.4516 18.7597C16.7649 18.7597 18.0463 18.6211 19.2809 18.3557L19.1609 18.3771C21.1543 17.9744 22.8903 17.0677 24.2903 15.7971L24.2809 15.8051C25.5183 14.6184 26.4689 13.1437 27.0263 11.4877L27.0489 11.4117C27.2903 10.7517 27.5063 9.95306 27.6596 9.13306L27.6743 9.03706C27.6783 8.9864 27.6943 8.94106 27.7196 8.90106C27.7316 8.88906 27.7476 8.8824 27.7663 8.8824C27.7729 8.8824 27.7783 8.88373 27.7836 8.88506C27.8249 8.90106 27.8596 8.9224 27.8903 8.94906C28.8049 9.6344 29.4436 10.6437 29.6356 11.8037L29.6396 11.8291ZM26.5676 6.79306C26.5329 8.31573 26.2343 9.75973 25.7169 11.0931L25.7463 11.0064C24.9183 13.6411 22.9383 15.6957 20.4129 16.6117L20.3529 16.6304C19.0116 17.1024 17.4636 17.3757 15.8529 17.3771H15.8516C15.8516 17.3895 15.3156 17.3957 14.2436 17.3957L12.6356 17.3771C12.5769 17.3704 12.5076 17.3664 12.4383 17.3664C11.4463 17.3664 10.6303 18.1184 10.5289 19.0824L10.5276 19.0904C10.5045 19.1855 9.99872 22.3402 9.01028 28.5544C9.00761 28.6544 8.92494 28.7344 8.82494 28.7344C8.81561 28.7344 8.80495 28.7331 8.79561 28.7317H3.53028C3.05428 28.7304 2.66895 28.3451 2.66895 27.8691C2.66895 27.8264 2.67161 27.7851 2.67828 27.7451V27.7491L6.82094 1.48106C6.87961 1.13573 7.05694 0.838396 7.30895 0.629063L7.31161 0.627729C7.55294 0.417062 7.87161 0.289062 8.21961 0.289062H8.22361H18.9023C19.5329 0.314396 20.1303 0.398396 20.7063 0.534396L20.6423 0.521063C21.4076 0.671729 22.0743 0.869063 22.7143 1.12106L22.6329 1.09306C23.8356 1.52506 24.8316 2.28773 25.5396 3.27173L25.5516 3.28906C26.1863 4.22773 26.5636 5.38373 26.5636 6.62906C26.5636 6.68506 26.5623 6.74106 26.5609 6.79706V6.78906L26.5676 6.79306Z" fill="black"/>
</g>
</mask>
<g mask="url(#mask0_1330_2984)">
<rect x="-0.415039" y="-0.117188" width="33.0323" height="33.0323" fill="#FFFAFA"/>
</g>
<defs>
<clipPath id="clip0_1330_2984">
<rect width="32" height="32" fill="white" transform="translate(0 0.296875)"/>
</clipPath>
</defs>
</svg>
