<svg width="198" height="44" viewBox="0 0 198 44" fill="none" xmlns="http://www.w3.org/2000/svg">
<path d="M24.3351 13.6821C24.3351 9.41535 24.3351 5.14863 24.3351 0.881919C24.3351 0.23785 24.2983 0.306835 24.9056 0.306835C32.0345 0.305545 39.164 0.305545 46.2929 0.306835C46.9216 0.306835 46.8757 0.24881 46.8764 0.867735C46.877 2.77802 46.8764 4.68766 46.8764 6.59795C46.8764 6.70562 46.8706 6.81393 46.8757 6.92159C46.8841 7.10147 46.7931 7.16981 46.6234 7.16401C46.5001 7.16014 46.3768 7.16401 46.2529 7.16401C41.8859 7.16401 37.5188 7.16401 33.1518 7.16401C32.547 7.16401 32.5844 7.11436 32.5838 7.74618C32.5838 8.53144 32.5806 9.31735 32.5851 10.1026C32.587 10.4765 32.5941 10.4778 32.9781 10.4849C33.1634 10.4882 33.3486 10.4856 33.5339 10.4856C37.7931 10.4856 42.0517 10.4856 46.311 10.4856C46.9416 10.4856 46.8751 10.4424 46.8757 11.0652C46.8777 12.8059 46.8764 14.5466 46.8757 16.2867C46.8757 16.3944 46.8706 16.5027 46.8757 16.6104C46.8841 16.7831 46.8099 16.8669 46.6324 16.8599C46.5091 16.8547 46.3859 16.8599 46.2619 16.8599C41.8949 16.8599 37.5278 16.8599 33.1608 16.8599C32.5418 16.8599 32.5838 16.8038 32.5831 17.4298C32.5825 18.1538 32.5831 18.8778 32.5831 19.6018C32.5831 20.2246 32.5534 20.1634 33.1698 20.164C37.3671 20.1647 41.5644 20.164 45.7617 20.164C45.9624 20.164 46.1632 20.164 46.3633 20.164C46.8983 20.164 46.8757 20.1337 46.8757 20.6579C46.8757 22.1671 46.8757 23.6771 46.8757 25.1863C46.8757 25.6944 46.8661 26.203 46.8796 26.7111C46.8861 26.9567 46.7873 27.045 46.5543 27.0238C46.4627 27.0154 46.3691 27.0225 46.2768 27.0225C39.1634 27.0225 32.0494 27.0225 24.936 27.0212C24.2834 27.0212 24.3357 27.0998 24.3351 26.4326C24.3338 22.1813 24.3351 17.9301 24.3351 13.6788V13.6821Z" fill="#FF2B06"/>
<path d="M177.699 21.5548C178.052 20.0564 178.406 18.5581 178.758 17.0592C179.194 15.2005 179.629 13.3418 180.06 11.4818C180.636 8.99123 181.207 6.50005 181.781 4.00952C182.033 2.91416 182.285 1.81814 182.538 0.72342C182.623 0.357222 182.653 0.326276 183.037 0.324342C184.04 0.31854 185.043 0.320474 186.046 0.322408C186.6 0.323697 186.613 0.341749 186.475 0.863322C186.158 2.06958 185.839 3.2752 185.523 4.4821C184.937 6.71603 184.355 8.95125 183.766 11.1845C182.933 14.3411 182.094 17.4956 181.262 20.6522C180.751 22.5876 180.247 24.525 179.741 26.4617C179.62 26.9252 179.621 26.9291 179.158 26.9304C178.186 26.933 177.213 26.933 176.241 26.9304C175.799 26.9291 175.797 26.9259 175.678 26.4971C175.096 24.4057 174.517 22.3129 173.934 20.2215C173.093 17.2107 172.247 14.2012 171.407 11.1903C170.894 9.35098 170.389 7.50967 169.878 5.66966C169.83 5.49817 169.795 5.31765 169.637 5.11199C169.548 5.37632 169.467 5.58456 169.408 5.79861C168.774 8.068 168.146 10.3387 167.51 12.6074C166.917 14.7279 166.313 16.8458 165.718 18.9656C165.177 20.8926 164.642 22.8223 164.103 24.75C163.933 25.3579 163.761 25.9652 163.582 26.57C163.477 26.9233 163.469 26.9284 163.105 26.9297C162.102 26.9336 161.099 26.9336 160.096 26.9297C159.685 26.9284 159.674 26.9252 159.563 26.5113C159.28 25.4553 159.009 24.396 158.732 23.3387C157.999 20.538 157.264 17.7374 156.532 14.9361C155.905 12.5378 155.282 10.1382 154.655 7.73919C154.056 5.44466 153.453 3.15141 152.852 0.85752C152.712 0.324987 152.712 0.322408 153.271 0.321763C154.227 0.319829 155.184 0.319829 156.141 0.321763C156.659 0.323053 156.65 0.32821 156.77 0.845271C157.498 3.97987 158.234 7.11318 158.962 10.2478C159.502 12.5726 160.034 14.8987 160.571 17.2242C160.89 18.6046 161.208 19.9849 161.53 21.3639C161.554 21.4645 161.558 21.5786 161.652 21.6534C161.79 21.6154 161.774 21.4877 161.801 21.3916C162.501 18.885 163.196 16.3771 163.896 13.8704C164.645 11.1858 165.401 8.50318 166.149 5.81924C166.613 4.15781 167.072 2.49509 167.53 0.832376C167.669 0.327566 167.663 0.323697 168.18 0.322408C169.183 0.320474 170.186 0.319184 171.189 0.323053C171.608 0.324342 171.61 0.330144 171.723 0.73438C172.394 3.15335 173.061 5.57296 173.736 7.99063C174.377 10.2897 175.031 12.5849 175.672 14.8839C176.243 16.9309 176.804 18.9804 177.372 21.028C177.413 21.1757 177.469 21.3194 177.518 21.4651C177.541 21.4851 177.558 21.5096 177.568 21.538C177.579 21.5664 177.599 21.5844 177.63 21.5909C177.661 21.5934 177.684 21.5818 177.701 21.5541L177.699 21.5548Z" fill="#FFFAFA"/>
<path d="M11.5899 0.305261C15.185 0.305261 18.7808 0.305261 22.3759 0.305261C22.4533 0.305261 22.5301 0.305261 22.6076 0.305261C23.0626 0.309129 23.0658 0.309129 23.0658 0.761718C23.0671 2.73325 23.0671 4.70479 23.0658 6.67632C23.0658 7.15921 23.0633 7.16179 22.5908 7.16243C20.4615 7.16372 18.3322 7.16243 16.2029 7.16243C16.0951 7.16243 15.9867 7.16888 15.8789 7.16243C15.6672 7.14889 15.5594 7.23142 15.5749 7.45449C15.5833 7.57698 15.5755 7.70077 15.5755 7.82391C15.5755 14.0312 15.5755 20.2385 15.5755 26.4458C15.5755 27.0673 15.6355 27.0235 15.0088 27.0241C12.6323 27.0248 10.2565 27.0241 7.87994 27.0241C7.86445 27.0241 7.84896 27.0241 7.83347 27.0241C7.29324 27.0254 7.33003 27.0409 7.33003 26.5212C7.33003 20.283 7.33003 14.0447 7.32938 7.8065C7.32938 7.08894 7.40361 7.16372 6.68717 7.16308C4.66566 7.1605 2.64414 7.16243 0.62327 7.16243C0.545818 7.16243 0.46901 7.16372 0.391558 7.16243C0.00558503 7.15534 0.00171239 7.15534 0.00106695 6.74015C-0.000869367 5.76985 0.000421511 4.79956 0.000421511 3.82926C0.000421511 2.79708 -0.000869367 1.76554 0.00106695 0.73335C0.00171239 0.309774 0.00558503 0.305905 0.434157 0.305261C4.15318 0.303971 7.87155 0.305261 11.5906 0.305261H11.5899Z" fill="#FF2B06"/>
<path d="M113.712 9.16429C113.712 6.43844 113.71 3.71259 113.712 0.986744C113.712 0.302059 113.634 0.320755 114.398 0.3214C115.232 0.32269 116.064 0.319466 116.898 0.32269C117.377 0.324624 117.394 0.340097 117.394 0.81654C117.397 2.84932 117.396 4.8821 117.396 6.91488C117.396 9.34803 117.395 11.7812 117.396 14.2143C117.396 15.5231 117.381 16.8312 117.243 18.1342C117.076 19.717 116.799 21.2752 116.09 22.7226C115.053 24.8405 113.397 26.2511 111.163 26.9893C110.028 27.3639 108.861 27.5573 107.665 27.585C106.305 27.616 104.951 27.5954 103.615 27.2898C101.876 26.892 100.329 26.1493 99.0873 24.8411C98.1243 23.8257 97.4698 22.6298 97.0761 21.2965C96.6378 19.813 96.4306 18.2909 96.3848 16.7442C96.2686 12.7876 96.3616 8.83033 96.3338 4.87308C96.3248 3.57978 96.3325 2.28584 96.3325 0.992547C96.3325 0.88488 96.328 0.776568 96.3351 0.669545C96.3551 0.372332 96.3874 0.336229 96.7024 0.325913C97.0257 0.315598 97.3504 0.32269 97.6744 0.32269C98.2914 0.32269 98.9085 0.319466 99.5255 0.323979C100.004 0.327847 100.019 0.342031 100.02 0.821053C100.023 2.79194 100.021 4.76348 100.021 6.73437C100.021 10.1223 100.021 13.5103 100.021 16.8983C100.021 18.2348 100.212 19.5384 100.731 20.7788C101.501 22.6188 102.8 23.8496 104.8 24.2577C106.485 24.602 108.147 24.5072 109.768 23.9353C111.682 23.2603 112.822 21.8729 113.34 19.9426C113.61 18.9394 113.708 17.9143 113.709 16.8796C113.713 14.3078 113.71 11.7361 113.71 9.16429H113.712Z" fill="#FFFAFA"/>
<path d="M91.6361 16.6907C91.4967 16.7758 91.3715 16.743 91.2528 16.743C89.5249 16.7455 87.7964 16.7365 86.0686 16.7526C85.762 16.7552 85.5993 16.6521 85.449 16.3948C84.7874 15.2653 84.1052 14.1473 83.4274 13.0275C83.3577 12.9121 83.3061 12.7793 83.1602 12.6871C83.0279 12.7664 82.9685 12.9114 82.8937 13.0384C82.2527 14.1267 81.606 15.2111 80.9825 16.3091C80.805 16.6224 80.6101 16.7617 80.2261 16.7559C78.5602 16.7307 76.8937 16.7449 75.2271 16.7449H74.7476C74.7708 16.5057 74.9083 16.3729 75.0064 16.2278C76.6678 13.7811 78.333 11.3364 79.9976 8.89164C80.2601 8.5061 80.2564 8.1154 79.9866 7.71955C78.3853 5.38053 76.7826 3.0428 75.1826 0.70313C75.0987 0.57999 74.9754 0.475546 74.9638 0.308565C75.0839 0.196385 75.2297 0.244739 75.3614 0.244739C77.0744 0.240871 78.7867 0.249897 80.4991 0.235068C80.8192 0.232489 80.9916 0.333065 81.1445 0.619317C81.6977 1.65021 82.2837 2.6637 82.8588 3.68364C82.9408 3.8287 83.0034 3.98795 83.1576 4.11624C83.3158 4.00987 83.3803 3.83386 83.4694 3.68171C84.0735 2.64307 84.6789 1.60508 85.2695 0.559359C85.398 0.331775 85.5438 0.234423 85.8143 0.236358C87.5731 0.247962 89.3319 0.241515 91.0914 0.244094C91.194 0.244094 91.3089 0.211214 91.4135 0.317591C91.3883 0.498111 91.2527 0.632856 91.154 0.777917C89.5288 3.15627 87.8984 5.53075 86.2687 7.90651C85.9905 8.31204 85.9879 8.31269 86.2545 8.70338C87.9797 11.2371 89.7063 13.7702 91.4315 16.3039C91.5083 16.4174 91.6058 16.5199 91.6361 16.6914V16.6907Z" fill="#FF2B06"/>
<path d="M147.235 18.5266C147.235 21.0829 147.235 23.6399 147.235 26.1962C147.235 26.3193 147.239 26.4431 147.233 26.5656C147.217 26.895 147.193 26.926 146.846 26.9286C146.028 26.935 145.211 26.935 144.393 26.9286C144.016 26.926 143.998 26.9008 143.984 26.5404C143.979 26.4173 143.982 26.2942 143.982 26.171C143.982 21.0733 143.982 15.9755 143.982 10.8784C143.982 10.7553 143.985 10.6321 143.982 10.509C143.971 10.1151 143.964 10.1035 143.554 10.1002C142.921 10.0957 142.289 10.1035 141.656 10.0964C141.286 10.0925 141.256 10.0654 141.251 9.70181C141.242 9.10158 141.242 8.50071 141.251 7.89983C141.256 7.57168 141.296 7.53428 141.636 7.52977C142.284 7.52139 142.932 7.53106 143.58 7.52461C143.957 7.52074 143.977 7.50205 143.98 7.13069C143.986 6.29901 143.984 5.46733 143.983 4.63565C143.983 4.06379 144.06 3.50031 144.162 2.93941C144.41 1.57197 145.245 0.734489 146.539 0.312201C147.144 0.114919 147.763 -0.00499777 148.402 0.000159937C148.988 0.00467293 149.574 0.0104754 150.16 0.00983064C150.393 0.00983064 150.49 0.112985 150.488 0.347016C150.482 1.1168 150.492 1.88724 150.483 2.65702C150.479 2.96391 150.445 2.98518 150.118 2.98389C149.778 2.9826 149.44 2.97358 149.1 2.96907C148.852 2.96584 148.609 3.00324 148.367 3.05933C147.849 3.17989 147.536 3.48484 147.427 4.01608C147.325 4.51638 147.293 5.02377 147.259 5.52922C147.224 6.0508 147.234 6.57624 147.236 7.09975C147.238 7.50205 147.257 7.52139 147.653 7.52461C148.362 7.53041 149.072 7.5259 149.782 7.52719C150.551 7.52848 150.485 7.47368 150.488 8.21961C150.489 8.71217 150.493 9.20538 150.486 9.69794C150.481 10.0732 150.463 10.0932 150.093 10.0964C149.338 10.1028 148.581 10.0983 147.825 10.099C147.236 10.0996 147.234 10.1002 147.234 10.6721C147.234 13.2903 147.234 15.9085 147.234 18.5266H147.235Z" fill="#FFFAFA"/>
<path d="M152.611 37.686C152.611 36.5307 152.61 35.3754 152.612 34.22C152.613 33.7023 152.622 33.6907 153.12 33.6894C154.802 33.6869 156.484 33.6869 158.166 33.6894C158.627 33.6901 158.635 33.7017 158.641 34.1511C158.644 34.3819 158.634 34.6133 158.641 34.8441C158.648 35.0794 158.541 35.1794 158.308 35.1755C157.937 35.1697 157.567 35.1755 157.197 35.1755C156.41 35.1755 155.623 35.1716 154.836 35.1774C154.415 35.1807 154.393 35.2077 154.386 35.6242C154.381 35.9014 154.382 36.1787 154.386 36.4559C154.392 36.8872 154.401 36.9014 154.825 36.9033C155.736 36.9078 156.646 36.9033 157.556 36.9053C158.345 36.9066 158.285 36.8472 158.286 37.6248C158.287 38.0666 158.072 38.2877 157.64 38.2882C156.713 38.2882 155.788 38.2862 154.862 38.2895C154.398 38.2908 154.39 38.2998 154.385 38.7472C154.381 39.1166 154.379 39.4867 154.387 39.8561C154.394 40.2062 154.413 40.2268 154.754 40.2346C155.14 40.2429 155.526 40.2371 155.912 40.2371C156.699 40.2371 157.486 40.2346 158.273 40.2384C158.707 40.241 158.721 40.2571 158.729 40.6723C158.734 40.9031 158.736 41.1346 158.728 41.3654C158.716 41.6871 158.692 41.7077 158.387 41.7271C158.326 41.7309 158.264 41.729 158.202 41.729C156.52 41.729 154.838 41.729 153.156 41.729C153.063 41.729 152.97 41.7264 152.878 41.7258C152.711 41.7245 152.619 41.6471 152.617 41.475C152.615 41.3519 152.612 41.2287 152.612 41.1056C152.612 39.9657 152.612 38.8259 152.612 37.686H152.611Z" fill="#FFFAFA"/>
<path d="M149.549 38.4648C149.549 39.4035 149.552 40.3422 149.547 41.2809C149.545 41.7103 149.531 41.7219 149.106 41.7277C148.783 41.7322 148.459 41.7342 148.134 41.7264C147.777 41.7181 147.752 41.689 147.736 41.3209C147.731 41.1978 147.734 41.0746 147.734 40.9515C147.734 39.2739 147.734 37.5964 147.734 35.9189C147.734 35.8267 147.736 35.7345 147.734 35.6416C147.727 35.1942 147.716 35.1807 147.26 35.1761C146.767 35.1716 146.273 35.18 145.78 35.1723C145.407 35.1665 145.378 35.1381 145.368 34.7829C145.36 34.5063 145.368 34.2291 145.37 33.9518C145.372 33.7855 145.455 33.6952 145.625 33.6927C145.733 33.6907 145.841 33.6875 145.948 33.6875C147.752 33.6875 149.556 33.6875 151.36 33.6875C151.452 33.6875 151.545 33.6914 151.637 33.6901C151.843 33.6875 151.954 33.779 151.952 33.9931C151.95 34.2851 151.949 34.5778 151.954 34.8699C151.956 35.0839 151.854 35.1755 151.643 35.1736C151.211 35.1703 150.779 35.1736 150.348 35.1749C150.21 35.1749 150.071 35.1703 149.932 35.1774C149.598 35.1948 149.558 35.2264 149.552 35.5552C149.543 36.0323 149.549 36.5094 149.549 36.9865C149.549 37.4791 149.549 37.9716 149.549 38.4642V38.4648Z" fill="#FFFAFA"/>
<path d="M86.1947 39.6903C86.4716 39.0398 86.6349 38.35 86.8602 37.682C87.0228 37.2011 87.1764 36.7169 87.3197 36.2301C87.3914 35.9852 87.525 35.8788 87.7864 35.8917C88.1401 35.9097 88.4957 35.8968 88.8501 35.8988C89.0153 35.8994 89.0727 35.9793 89.0159 36.136C88.9049 36.4397 88.7939 36.7433 88.6816 37.0463C88.0562 38.7349 87.4307 40.4234 86.8053 42.1112C86.7679 42.2124 86.7285 42.3124 86.6904 42.4129C86.2741 43.498 85.7113 43.8416 84.4101 43.7778C83.6917 43.7423 83.6878 43.8861 83.6936 43.0125C83.6936 42.9358 83.6917 42.8584 83.6943 42.7817C83.702 42.5427 83.824 42.428 84.0603 42.4374C84.2145 42.4432 84.3688 42.4574 84.5224 42.4491C84.9845 42.4226 85.2208 42.1576 85.2059 41.6967C85.1988 41.4762 85.1155 41.2763 85.0407 41.0752C84.4624 39.533 83.8828 37.9915 83.3006 36.4513C83.0947 35.9059 83.0973 35.8975 83.6924 35.8949C83.9079 35.8942 84.1242 35.8936 84.3397 35.8949C84.8193 35.8981 84.8251 35.8968 84.9832 36.3681C85.2672 37.2146 85.5435 38.0631 85.8242 38.9109C85.9101 39.1707 85.9998 39.4292 86.0876 39.6884L86.1954 39.6897L86.1947 39.6903Z" fill="#FFFAFA"/>
<path d="M117.136 36.5731C117.249 36.4648 117.335 36.3778 117.426 36.2972C118.121 35.6776 119.41 35.5751 120.195 36.0767C120.68 36.3862 120.849 36.8774 120.935 37.4048C120.992 37.7529 121.019 38.1056 121.015 38.4615C121.007 39.4002 121.015 40.3389 121.011 41.277C121.009 41.707 120.995 41.716 120.569 41.7231C120.369 41.727 120.168 41.7244 119.968 41.7237C119.573 41.7229 119.375 41.532 119.374 41.1512C119.373 40.2899 119.375 39.4279 119.373 38.5666C119.373 38.3822 119.375 38.1959 119.353 38.0134C119.275 37.3861 118.988 37.0644 118.435 37.0457C117.679 37.0206 117.398 37.3036 117.231 37.8213C117.149 38.0753 117.137 38.3345 117.136 38.5962C117.135 39.4427 117.136 40.2886 117.135 41.1351C117.135 41.2428 117.133 41.3504 117.131 41.4581C117.128 41.6225 117.052 41.7186 116.88 41.7192C116.51 41.7205 116.14 41.7192 115.77 41.7205C115.603 41.7205 115.51 41.6444 115.506 41.4723C115.503 41.3492 115.5 41.226 115.5 41.1029C115.5 39.5794 115.5 38.0566 115.5 36.5331C115.5 36.41 115.501 36.2869 115.506 36.1637C115.512 36.0045 115.582 35.8981 115.756 35.8975C116.111 35.8955 116.465 35.8962 116.819 35.8981C116.971 35.8988 117.034 35.9832 117.047 36.1296C117.06 36.2617 117.008 36.4042 117.134 36.5725L117.136 36.5731Z" fill="#FFFAFA"/>
<path d="M20.9659 36.5765C21.0627 36.521 21.1098 36.5075 21.1369 36.4765C21.734 35.8047 22.504 35.6919 23.3379 35.8028C24.0917 35.9034 24.592 36.3721 24.772 37.1167C24.834 37.374 24.8534 37.6344 24.854 37.8962C24.8579 39.0206 24.8598 40.1449 24.8559 41.27C24.8547 41.7045 24.8379 41.7168 24.4196 41.7251C24.1886 41.7296 23.9568 41.729 23.7251 41.7251C23.2798 41.7187 23.2707 41.7122 23.2688 41.2455C23.2656 40.475 23.2688 39.7052 23.2669 38.9348C23.2662 38.6576 23.2714 38.3791 23.2488 38.1038C23.1797 37.254 22.6873 36.902 21.8605 37.0864C21.4674 37.1741 21.257 37.4378 21.1376 37.7917C21.0582 38.0264 21.033 38.272 21.033 38.5203C21.033 39.4293 21.0311 40.3377 21.0253 41.2468C21.0227 41.7129 21.0149 41.7187 20.5676 41.7251C20.3211 41.729 20.0739 41.729 19.8267 41.7251C19.4084 41.718 19.3962 41.7077 19.3917 41.2713C19.3871 40.8399 19.3904 40.4086 19.3904 39.9773C19.3904 38.8529 19.3904 37.7286 19.3904 36.6035C19.3904 36.4959 19.3871 36.3875 19.3923 36.2799C19.4091 35.9362 19.4323 35.9079 19.7654 35.8969C20.0429 35.8885 20.3211 35.8885 20.5986 35.8969C20.9201 35.9066 20.9207 35.9124 20.9459 36.2451C20.953 36.336 20.9568 36.4275 20.9652 36.5765H20.9659Z" fill="#FFFAFA"/>
<path d="M189.548 36.5695C189.617 36.5089 189.664 36.4708 189.706 36.4276C190.429 35.6824 191.31 35.6443 192.233 35.9022C192.78 36.055 193.098 36.4663 193.264 36.9989C193.348 37.2664 193.371 37.5424 193.371 37.8196C193.374 38.9736 193.377 40.1277 193.373 41.2817C193.371 41.7053 193.353 41.7175 192.927 41.7259C192.727 41.7298 192.527 41.7278 192.326 41.7265C191.784 41.724 191.782 41.7233 191.78 41.1985C191.778 40.3062 191.78 39.414 191.779 38.521C191.779 38.3521 191.782 38.1813 191.762 38.0143C191.685 37.3747 191.373 37.062 190.799 37.0369C190.165 37.0092 189.774 37.3057 189.627 37.9169C189.565 38.1742 189.552 38.4334 189.552 38.6957C189.552 39.5571 189.555 40.4191 189.55 41.2804C189.548 41.7098 189.536 41.7188 189.108 41.7246C188.815 41.7291 188.522 41.7201 188.229 41.7253C188.019 41.7291 187.912 41.6408 187.917 41.4255C187.92 41.3178 187.915 41.2101 187.915 41.1025C187.915 39.579 187.915 38.0562 187.915 36.5327C187.915 36.4251 187.919 36.3174 187.918 36.2097C187.917 36.006 188.003 35.8932 188.221 35.8958C188.545 35.9003 188.869 35.899 189.192 35.8958C189.387 35.8938 189.466 35.986 189.468 36.1775C189.47 36.2942 189.431 36.4218 189.548 36.5695H189.548Z" fill="#FFFAFA"/>
<path d="M53.1935 36.5214C53.3103 36.5427 53.3529 36.4673 53.4026 36.4151C54.0958 35.6891 54.9523 35.6582 55.845 35.8767C56.4143 36.016 56.7576 36.4279 56.9332 36.976C57.0177 37.2403 57.0597 37.5149 57.0603 37.7941C57.0623 38.9636 57.0681 40.1331 57.0655 41.3026C57.0649 41.7036 57.0474 41.714 56.6453 41.7223C56.3833 41.7275 56.1212 41.7288 55.8592 41.7223C55.4971 41.712 55.4726 41.6927 55.4706 41.3168C55.4648 40.3781 55.4655 39.4394 55.47 38.5007C55.4713 38.1899 55.4396 37.8882 55.3331 37.5936C55.2292 37.3067 55.0356 37.1307 54.7368 37.0772C53.9816 36.9418 53.4136 37.2164 53.2813 38.0243C53.2419 38.2654 53.2413 38.5149 53.24 38.7605C53.2355 39.5916 53.2406 40.4226 53.2368 41.2536C53.2348 41.7101 53.2239 41.7178 52.7714 41.7236C52.5248 41.7268 52.2783 41.7281 52.0317 41.7236C51.618 41.7159 51.6051 41.7043 51.6019 41.2659C51.5973 40.6966 51.6006 40.1273 51.6006 39.558C51.6006 38.5271 51.5999 37.4962 51.6006 36.4647C51.6006 36.0852 51.7981 35.8948 52.1931 35.8935C52.3932 35.8935 52.5939 35.8883 52.794 35.8948C53.1245 35.9057 53.1296 35.9128 53.1561 36.2274C53.1645 36.3293 53.1425 36.437 53.1942 36.5227L53.1935 36.5214Z" fill="#FFFAFA"/>
<path d="M72.4736 36.5724C72.5575 36.5453 72.5949 36.5453 72.6111 36.526C73.19 35.8458 73.9445 35.6924 74.7875 35.7942C75.6098 35.8935 76.1739 36.4203 76.3146 37.2326C76.3727 37.5666 76.4056 37.9018 76.4037 38.2429C76.3979 39.228 76.403 40.2131 76.4011 41.1976C76.3998 41.723 76.3972 41.7237 75.8544 41.7256C75.5924 41.7262 75.3303 41.723 75.0683 41.7204C74.8985 41.7192 74.8152 41.6302 74.8127 41.4632C74.8107 41.3555 74.8082 41.2479 74.8082 41.1402C74.8082 40.3704 74.8049 39.6013 74.8094 38.8315C74.8114 38.553 74.7881 38.2783 74.7488 38.0037C74.6552 37.3499 74.3512 37.043 73.7851 37.0302C73.1468 37.0153 72.7195 37.357 72.6111 37.9772C72.5633 38.2499 72.5375 38.5252 72.5394 38.8038C72.5446 39.6348 72.5452 40.4658 72.5394 41.2969C72.5368 41.6959 72.513 41.7159 72.1212 41.7237C71.8127 41.7295 71.5048 41.7237 71.1963 41.7211C71.0291 41.7198 70.9394 41.6373 70.9368 41.4677C70.9355 41.391 70.9316 41.3136 70.9316 41.2369C70.9316 39.6206 70.9316 38.005 70.9316 36.3887C70.9316 36.3274 70.9355 36.2655 70.9329 36.2043C70.9239 35.9941 71.0168 35.8916 71.2337 35.8948C71.5267 35.9 71.8198 35.9019 72.1122 35.8935C72.3426 35.8871 72.4587 35.976 72.4484 36.2165C72.4439 36.321 72.4626 36.4267 72.4742 36.5711L72.4736 36.5724Z" fill="#FFFAFA"/>
<path d="M126.955 37.1565C126.348 37.1565 125.828 37.1565 125.307 37.1565C125.076 37.1565 124.845 37.152 124.613 37.1552C124.391 37.1578 124.269 37.074 124.271 36.8315C124.277 35.6923 124.162 35.9115 125.146 35.9012C126.332 35.8883 127.519 35.8967 128.706 35.8993C129.19 35.9006 129.155 35.9077 129.205 36.3886C129.26 36.927 129.063 37.3228 128.707 37.7058C127.952 38.5175 127.228 39.3569 126.494 40.186C126.425 40.2634 126.321 40.3207 126.323 40.4581C126.414 40.5651 126.547 40.5193 126.66 40.52C127.415 40.5251 128.17 40.52 128.925 40.5232C129.417 40.5251 129.434 40.5393 129.436 41.0022C129.439 41.8255 129.475 41.7262 128.72 41.7281C127.333 41.732 125.946 41.7307 124.559 41.7281C124.078 41.7269 124.097 41.7165 124.062 41.2349C124.026 40.7443 124.156 40.3594 124.51 39.9939C125.183 39.2976 125.808 38.5536 126.451 37.8283C126.612 37.6471 126.794 37.4808 126.956 37.1571L126.955 37.1565Z" fill="#FFFAFA"/>
<path d="M0.417734 41.7344C0.942476 40.9653 1.40009 40.2935 1.85835 39.6224C2.01455 39.3935 2.16236 39.1569 2.33275 38.9396C2.48185 38.7501 2.46119 38.5966 2.3263 38.4084C1.84222 37.7314 1.37105 37.0461 0.89665 36.362C0.811452 36.2389 0.703663 36.1261 0.659773 35.9024C1.21872 35.9024 1.74992 35.903 2.28047 35.9024C2.45022 35.9024 2.51541 36.0352 2.59157 36.1461C2.86137 36.5393 3.126 36.9358 3.38353 37.3188C3.55134 37.3427 3.58361 37.2182 3.63977 37.1363C3.87535 36.7934 4.10706 36.4484 4.3349 36.1003C4.41558 35.9772 4.50465 35.8959 4.66795 35.8985C5.15848 35.9062 5.64902 35.9011 6.13116 35.9011C6.19506 36.0803 6.07372 36.1596 6.00853 36.2531C5.54252 36.9236 5.07264 37.5909 4.60083 38.2575C4.32716 38.645 4.32716 38.6411 4.6118 39.0486C5.1417 39.8061 5.66903 40.5649 6.19312 41.3263C6.26799 41.4347 6.38224 41.5301 6.36546 41.7312C5.8291 41.7312 5.29403 41.7332 4.7596 41.7299C4.59308 41.7286 4.53305 41.5887 4.45689 41.4746C4.20969 41.1026 3.96636 40.7274 3.71657 40.3573C3.63267 40.2336 3.58232 40.0775 3.38675 39.9982C3.08275 40.4515 2.75874 40.897 2.47733 41.3682C2.305 41.6571 2.0991 41.7654 1.76606 41.7422C1.35427 41.7132 0.937958 41.7351 0.416443 41.7351L0.417734 41.7344Z" fill="#FF2B06"/>
<path d="M178.693 39.6901C178.847 39.4013 178.916 39.0873 179.012 38.7862C179.278 37.95 179.531 37.11 179.79 36.2718C179.905 35.8998 179.906 35.8972 180.304 35.8921C180.612 35.8882 180.921 35.8934 181.23 35.8921C181.412 35.8921 181.489 35.9656 181.424 36.15C181.403 36.208 181.385 36.2667 181.365 36.3253C180.813 37.959 180.262 39.5927 179.708 41.2252C179.54 41.7203 179.537 41.7197 179.032 41.7216C178.708 41.7229 178.384 41.7119 178.061 41.7242C177.822 41.7338 177.699 41.6339 177.625 41.4095C177.361 40.6049 177.082 39.8055 176.808 39.0041C176.509 38.1299 176.208 37.2563 175.909 36.3827C175.879 36.295 175.849 36.208 175.821 36.1197C175.779 35.9901 175.818 35.8998 175.961 35.8985C176.393 35.894 176.825 35.8927 177.257 35.9018C177.454 35.9056 177.492 36.0797 177.538 36.2235C177.69 36.6922 177.835 37.1628 177.98 37.6335C178.151 38.1924 178.317 38.754 178.493 39.3116C178.533 39.4393 178.541 39.5889 178.693 39.6888V39.6901Z" fill="#FFFAFA"/>
<path d="M77.7906 38.9193C77.7906 38.3958 77.7964 37.873 77.788 37.3495C77.7828 37.0316 77.7577 36.9942 77.4427 37.0032C76.7979 37.0213 76.8541 36.9594 76.8541 36.3772C76.8541 35.9085 76.8579 35.9085 77.3478 35.893C77.7816 35.8795 77.7835 35.8795 77.79 35.4501C77.7945 35.1117 77.7951 34.7732 77.7925 34.4347C77.7912 34.2452 77.8758 34.1478 78.0681 34.1484C78.4225 34.1484 78.7775 34.1504 79.1318 34.1484C79.3487 34.1472 79.4332 34.2626 79.4326 34.4663C79.4313 34.7893 79.4313 35.1129 79.4358 35.4359C79.4423 35.8763 79.4494 35.8814 79.8683 35.893C80.626 35.9137 80.657 35.9543 80.5808 36.7157C80.5621 36.9033 80.493 36.9994 80.2988 36.9961C80.129 36.9936 79.9593 36.9923 79.7902 37C79.4752 37.0142 79.4461 37.0374 79.4378 37.3482C79.4281 37.7324 79.4345 38.1173 79.4345 38.5022C79.4345 38.9793 79.4268 39.4564 79.4384 39.9335C79.4494 40.3899 79.5662 40.5144 80.0238 40.5118C80.6008 40.5085 80.5802 40.5002 80.5802 41.1184C80.5802 41.796 80.5802 41.7999 79.8831 41.7993C79.5301 41.7993 79.1757 41.8231 78.8259 41.7271C78.1307 41.5356 77.8138 41.1591 77.7958 40.4428C77.7828 39.9354 77.7932 39.4274 77.7932 38.9193H77.7893H77.7906Z" fill="#FFFAFA"/>
<path d="M194.809 38.9729C194.809 38.434 194.817 37.895 194.806 37.3567C194.799 37.0427 194.765 37.0008 194.454 37.0066C193.769 37.0195 193.82 37.0459 193.823 36.2884C193.825 35.917 193.842 35.8983 194.22 35.899C194.823 35.8996 194.812 35.9318 194.81 35.2762C194.81 35.0144 194.817 34.7527 194.81 34.4909C194.803 34.264 194.89 34.144 195.131 34.1486C195.455 34.155 195.778 34.1511 196.102 34.1518C196.311 34.1518 196.411 34.253 196.409 34.4645C196.406 34.7875 196.408 35.1111 196.412 35.4341C196.417 35.8706 196.419 35.8706 196.836 35.8957C196.897 35.8996 196.959 35.8996 197.02 35.9035C197.149 35.9106 197.216 35.9808 197.222 36.1078C197.227 36.2 197.229 36.2922 197.23 36.3844C197.235 36.9402 197.235 36.9479 196.685 36.9995C196.49 37.0175 196.412 37.1007 196.412 37.2877C196.416 38.1961 196.405 39.1045 196.423 40.0122C196.43 40.3662 196.539 40.4771 196.9 40.5093C197.168 40.5325 197.25 40.6479 197.23 40.8897C197.224 40.9664 197.23 41.0438 197.23 41.1205C197.226 41.8638 197.295 41.7981 196.52 41.8058C196.239 41.8084 195.965 41.7762 195.698 41.6949C195.132 41.5241 194.859 41.1804 194.817 40.5892C194.815 40.5583 194.813 40.528 194.813 40.4971C194.813 39.989 194.813 39.481 194.813 38.9729H194.81H194.809Z" fill="#FFFAFA"/>
<path d="M81.1339 37.693C81.1339 36.5235 81.132 35.3533 81.1352 34.1838C81.1365 33.7035 81.1533 33.6899 81.6257 33.6835C81.8878 33.6803 82.1505 33.6758 82.4119 33.6861C82.7255 33.6977 82.7572 33.7331 82.7785 34.0304C82.7843 34.1071 82.7804 34.1844 82.7804 34.2612C82.7804 36.5544 82.7804 38.8477 82.7804 41.1409C82.7804 41.2331 82.7759 41.3259 82.7785 41.4181C82.7849 41.6296 82.6875 41.7276 82.4725 41.7237C82.1337 41.7179 81.7942 41.7166 81.4553 41.7244C81.2139 41.7302 81.13 41.6154 81.1326 41.3872C81.1384 40.7715 81.1339 40.1558 81.1332 39.5401C81.1332 38.9244 81.1332 38.3087 81.1332 37.693H81.1339Z" fill="#FFFAFA"/>
<path d="M100.358 36.7218C100.585 36.4742 100.802 36.2189 101.097 36.0468C101.426 35.8547 101.774 35.7612 102.155 35.7747C102.351 35.7818 102.485 35.854 102.488 36.0694C102.491 36.3924 102.49 36.7147 102.488 37.0377C102.486 37.2157 102.382 37.2769 102.216 37.2679C102.094 37.2608 101.97 37.2576 101.847 37.2601C101.026 37.2808 100.495 37.7617 100.385 38.5754C100.3 39.2027 100.321 39.8332 100.319 40.4631C100.318 40.7706 100.313 41.0781 100.319 41.3857C100.323 41.612 100.238 41.7299 99.9962 41.7241C99.6728 41.7164 99.3495 41.7183 99.0261 41.7235C98.8124 41.7267 98.7176 41.6287 98.7201 41.4179C98.724 41.1413 98.7189 40.8647 98.7189 40.5875C98.7189 39.2343 98.7189 37.8816 98.7189 36.5284C98.7189 36.4053 98.7214 36.2821 98.7221 36.1596C98.7227 35.9946 98.797 35.8985 98.9706 35.8979C99.3094 35.8966 99.6483 35.8979 99.9871 35.8966C100.181 35.8953 100.266 35.9978 100.267 36.1822C100.268 36.3492 100.267 36.5168 100.267 36.6838C100.298 36.6967 100.329 36.7089 100.359 36.7218H100.358Z" fill="#FFFAFA"/>
<path d="M123.42 38.8163C123.42 39.6305 123.423 40.4448 123.419 41.2591C123.416 41.7078 123.402 41.7175 122.948 41.7226C122.732 41.7252 122.517 41.7246 122.302 41.7226C121.783 41.7188 121.78 41.7188 121.778 41.2191C121.776 40.6356 121.778 40.0515 121.778 39.4681C121.778 38.4391 121.776 37.4095 121.778 36.3805C121.78 35.897 121.784 35.8964 122.267 35.8918C122.467 35.8899 122.667 35.8906 122.867 35.8918C123.417 35.8951 123.418 35.8951 123.42 36.4663C123.422 37.0652 123.42 37.6648 123.42 38.2637C123.42 38.4481 123.42 38.6325 123.42 38.8169V38.8163Z" fill="#FFFAFA"/>
<path d="M18.3703 38.8281C18.3703 39.6269 18.3722 40.4251 18.3696 41.2239C18.3677 41.7171 18.3638 41.7196 17.8907 41.7248C17.6293 41.728 17.3672 41.7184 17.1065 41.7261C16.8677 41.7332 16.7702 41.621 16.7831 41.3915C16.7876 41.3148 16.7825 41.238 16.7825 41.1613C16.7825 39.5947 16.7825 38.0287 16.7825 36.462C16.7825 36.3853 16.7792 36.3079 16.7838 36.2318C16.8025 35.9269 16.8199 35.9056 17.1452 35.8966C17.4376 35.8889 17.73 35.8882 18.0217 35.8972C18.336 35.9075 18.3619 35.9288 18.367 36.248C18.3761 36.8159 18.3703 37.3846 18.3703 37.9526C18.3703 38.2446 18.3703 38.536 18.3703 38.8281Z" fill="#FFFAFA"/>
<path d="M11.1712 37.0871C11.9716 37.0871 12.7713 37.0838 13.5716 37.0883C14.0002 37.0909 14.017 37.1064 14.0183 37.5293C14.0202 38.3681 14.0789 38.2907 13.2922 38.292C11.8457 38.2946 10.3993 38.2927 8.95287 38.292C8.82959 38.292 8.70696 38.2894 8.58368 38.2849C8.43717 38.2798 8.35778 38.2043 8.35326 38.0554C8.35326 38.0399 8.35132 38.0245 8.34939 38.0096C8.24999 37.1206 8.28097 37.0864 9.18652 37.0864C9.8481 37.0864 10.5097 37.0864 11.1712 37.0864V37.0871Z" fill="#FFFAFA"/>
<path d="M11.1722 40.6983C10.3712 40.6983 9.57017 40.7022 8.76918 40.6964C8.36707 40.6938 8.349 40.6777 8.349 40.2786C8.349 39.367 8.26768 39.4921 9.13386 39.4882C10.5971 39.4824 12.0609 39.485 13.5241 39.4876C14.0127 39.4882 14.0179 39.4927 14.0185 39.9737C14.0192 40.7667 14.0734 40.6945 13.2976 40.697C12.5889 40.6996 11.8802 40.697 11.1715 40.697L11.1722 40.6983Z" fill="#FFFAFA"/>
<path d="M122.562 33.6817C123.49 33.6914 123.419 33.5541 123.417 34.5495C123.417 35.0176 123.394 35.035 122.918 35.0402C122.658 35.0427 122.396 35.0472 122.135 35.0382C121.817 35.0279 121.788 35.0002 121.776 34.6991C121.766 34.4696 121.78 34.2394 121.773 34.0093C121.765 33.7759 121.866 33.6695 122.101 33.6805C122.254 33.6875 122.408 33.6817 122.562 33.6817Z" fill="#FFFAFA"/>
<path d="M17.5878 35.0381C16.6816 35.0329 16.7887 35.1413 16.7804 34.229C16.7797 34.1374 16.7829 34.0452 16.7849 33.9537C16.7888 33.7893 16.8707 33.6926 17.0372 33.6906C17.4051 33.6861 17.773 33.6868 18.1409 33.6906C18.2894 33.6926 18.363 33.7835 18.3649 33.926C18.3681 34.2167 18.3681 34.5075 18.3649 34.7983C18.363 34.973 18.2533 35.0362 18.0938 35.0381C17.9254 35.0394 17.7563 35.0381 17.5878 35.0381Z" fill="#FFFAFA"/>
<path d="M177.522 21.6499C177.521 21.5893 177.519 21.5294 177.517 21.4688C177.577 21.4984 177.639 21.5281 177.699 21.5584C177.699 21.619 177.701 21.6796 177.701 21.7408C177.594 21.804 177.57 21.7047 177.522 21.6506V21.6499Z" fill="#A3BFE9"/>
<path d="M73.7099 11.3171C73.5105 9.52669 73.0651 7.80724 72.2493 6.19417C71.2398 4.19942 69.7798 2.63664 67.7738 1.6109C65.9485 0.677999 63.9915 0.313091 61.9597 0.309223C57.5784 0.300841 53.1972 0.306644 48.816 0.306644C48.1925 0.306644 48.2447 0.261514 48.2447 0.881728C48.2447 5.14715 48.2447 9.41322 48.2447 13.6786C48.2447 17.975 48.2447 22.2714 48.2447 26.5684C48.2447 27.0216 48.248 27.0216 48.7011 27.0255C48.7166 27.0255 48.7321 27.0255 48.7475 27.0255C52.728 27.0255 56.7077 27.0332 60.6882 27.0223C62.7729 27.0165 64.8054 26.6877 66.7475 25.9043C68.7581 25.0939 70.4104 23.829 71.6322 22.0245C72.6346 20.5448 73.2271 18.9034 73.5408 17.1588C73.8887 15.2214 73.9287 13.2718 73.7105 11.3158L73.7099 11.3171ZM65.223 16.2691C64.5324 18.6333 62.942 19.9575 60.4836 20.1316C59.2553 20.2186 58.016 20.158 56.782 20.1683C56.5864 20.1703 56.4993 20.0935 56.5077 19.8956C56.5154 19.6958 56.5089 19.4952 56.5089 19.2947C56.5089 17.4154 56.5089 15.5367 56.5089 13.6574C56.5089 11.6858 56.5089 9.7143 56.5089 7.74277C56.5089 7.6351 56.5135 7.52679 56.5089 7.41912C56.5031 7.24698 56.5793 7.16253 56.7549 7.16639C58.1561 7.19734 59.5638 7.06002 60.9547 7.34047C63.35 7.824 64.9423 9.42483 65.4128 11.8348C65.7039 13.3273 65.6484 14.8101 65.2224 16.2685L65.223 16.2691Z" fill="#FF2B06"/>
<path d="M177.523 21.6491C177.582 21.6794 177.642 21.7097 177.702 21.7393C177.693 21.7974 177.681 21.8651 177.603 21.8315C177.531 21.8006 177.527 21.72 177.523 21.6484V21.6491Z" fill="#DDE7F7"/>
<path d="M138.742 12.8534C137.855 10.0934 135.967 8.33913 133.255 7.41461C131.927 6.96138 130.552 6.9401 129.181 7.06711C127.245 7.24698 125.558 8.01097 124.173 9.40162C122.695 10.8857 121.872 12.7019 121.507 14.7295C121.259 16.1092 121.169 17.5024 121.298 18.9118C121.441 20.4791 121.766 21.9851 122.535 23.3706C123.711 25.4879 125.436 26.9049 127.845 27.3936C129.642 27.7585 131.437 27.685 133.201 27.1828C134.486 26.8166 135.613 26.159 136.519 25.1674C137.263 24.3532 137.834 23.4209 138.263 22.4061C139.008 20.6486 139.296 18.8048 139.295 16.9074C139.306 15.5296 139.167 14.1725 138.743 12.8534H138.742ZM135.855 16.7359C135.859 18.7596 135.509 20.539 134.725 22.2333C134.002 23.7981 132.737 24.5827 131.076 24.7709C130.249 24.8644 129.419 24.8277 128.597 24.6136C127.376 24.2951 126.476 23.5782 125.837 22.519C125.249 21.5429 124.909 20.4759 124.753 19.3502C124.561 17.9666 124.597 16.5857 124.836 15.2124C125.026 14.1274 125.389 13.099 125.942 12.1423C126.76 10.7259 128.004 9.96767 129.622 9.83486C130.531 9.76008 131.437 9.7994 132.318 10.1037C133.571 10.5357 134.454 11.3693 135.024 12.5414C135.459 13.4362 135.695 14.3885 135.776 15.382C135.818 15.8887 135.867 16.3935 135.855 16.7359Z" fill="#FFFAFA"/>
<path d="M166.259 35.8329C165.931 34.9444 165.321 34.3313 164.445 33.9741C163.936 33.7665 163.403 33.693 162.861 33.6866C161.89 33.675 160.919 33.6808 159.947 33.684C159.461 33.6853 159.455 33.6898 159.455 34.1734C159.452 35.3435 159.454 36.513 159.454 37.6832C159.454 38.8836 159.451 40.0847 159.455 41.2852C159.457 41.6965 159.477 41.7204 159.861 41.721C161.002 41.7236 162.144 41.7417 163.285 41.7081C164.684 41.6675 165.789 40.8648 166.25 39.5838C166.698 38.3382 166.72 37.0842 166.259 35.8329ZM164.593 39.0326C164.289 39.7972 163.724 40.2079 162.895 40.2292C162.464 40.2401 162.031 40.2382 161.6 40.2298C161.261 40.2234 161.236 40.1989 161.233 39.8507C161.226 39.1273 161.231 38.404 161.23 37.6806C161.23 36.9882 161.226 36.2951 161.232 35.6027C161.235 35.2113 161.268 35.1791 161.652 35.172C162.052 35.1643 162.451 35.1701 162.852 35.2172C163.875 35.3384 164.415 35.7748 164.678 36.7658C164.88 37.5252 164.889 38.2892 164.593 39.0326Z" fill="#FFFAFA"/>
<path d="M108.465 36.4512C108.465 36.359 108.461 36.2668 108.462 36.174C108.463 35.9812 108.365 35.8961 108.176 35.898C107.991 35.9 107.806 35.8961 107.621 35.8961C107.208 35.8961 106.955 36.1071 106.862 36.5292C106.572 36.2094 106.299 35.9548 105.929 35.8632C104.78 35.5802 103.671 35.9019 103.108 36.9708C102.509 38.1081 102.544 39.2815 103.1 40.4317C103.293 40.8288 103.604 41.1325 104.016 41.311C104.949 41.7166 105.84 41.7005 106.657 41.0248C106.715 40.9764 106.766 40.9158 106.886 40.9249C106.992 41.262 106.939 41.6076 106.871 41.95C106.777 42.4225 106.472 42.7069 106.012 42.8132C105.521 42.9261 105.007 42.9022 104.709 42.4664C104.467 42.1118 104.197 42.0351 103.824 42.0641C103.625 42.0795 103.424 42.0609 103.223 42.0692C102.898 42.0834 102.848 42.1543 102.945 42.4722C103.124 43.0582 103.529 43.4476 104.083 43.6713C105.055 44.064 106.041 44.035 107.018 43.6823C107.914 43.3593 108.346 42.6759 108.446 41.7598C108.47 41.5464 108.464 41.3291 108.464 41.1138C108.466 39.5594 108.465 38.005 108.465 36.4499V36.4512ZM106.851 39.3589C106.696 39.9668 106.225 40.3304 105.612 40.3343C104.988 40.3382 104.596 40.0326 104.414 39.3975C104.268 38.8837 104.252 38.3718 104.429 37.8586C104.623 37.2964 105.026 36.9895 105.594 36.9857C106.169 36.9824 106.59 37.2726 106.792 37.8167C106.829 37.9166 106.854 38.0224 106.872 38.1281C106.904 38.3247 106.926 38.5227 106.954 38.7309C106.921 38.9359 106.904 39.1513 106.851 39.3582V39.3589Z" fill="#FFFAFA"/>
<path d="M44.4856 37.6387C43.9705 35.791 41.8612 35.1611 40.4232 36.4286C40.4057 36.4441 40.3664 36.4344 40.3393 36.437C40.2863 36.3912 40.2934 36.3287 40.2863 36.2693C40.245 35.9115 40.2444 35.907 39.9126 35.8999C39.6202 35.8935 39.3272 35.9038 39.0342 35.898C38.8257 35.8941 38.714 35.976 38.7218 36.1945C38.725 36.2867 38.7199 36.3789 38.7199 36.4711C38.7199 38.7173 38.7199 40.9635 38.7199 43.209C38.7199 43.2858 38.7173 43.3631 38.7211 43.4398C38.7386 43.7551 38.7631 43.7861 39.0665 43.8035C39.2659 43.8144 39.4673 43.808 39.6674 43.8073C40.1338 43.8065 40.367 43.5677 40.367 43.0911C40.367 42.4792 40.367 41.8667 40.367 41.1833C40.498 41.2568 40.5432 41.271 40.5742 41.3013C41.7192 42.4128 43.9292 42.0157 44.4901 40.0499C44.7205 39.2421 44.7095 38.4446 44.4849 37.6387H44.4856ZM42.8449 39.9384C42.6106 40.4406 42.202 40.6837 41.665 40.6785C41.1267 40.6734 40.711 40.4168 40.5 39.912C40.194 39.1802 40.2128 38.4349 40.5174 37.7096C40.7136 37.2429 41.0951 37.0043 41.6088 36.9888C42.1381 36.9727 42.535 37.1951 42.7848 37.6574C42.9862 38.03 43.0656 38.4369 43.0611 38.8604C43.0546 39.2324 43.0049 39.5954 42.8449 39.9384Z" fill="#FFFAFA"/>
<path d="M141.945 41.1468C141.945 38.8549 141.945 36.5623 141.945 34.2703C141.945 34.1781 141.941 34.0859 141.942 33.9937C141.945 33.781 141.836 33.6881 141.628 33.6901C141.32 33.6927 141.011 33.6817 140.703 33.692C140.399 33.7023 140.37 33.7333 140.361 34.0524C140.352 34.4212 140.358 34.7906 140.358 35.16C140.358 35.5868 140.358 36.013 140.358 36.5223C140.228 36.4462 140.184 36.4288 140.151 36.3998C139.006 35.3825 137.328 35.6049 136.509 36.884C135.805 37.9839 135.864 39.7775 136.604 40.8761C137.474 42.1687 139.4 42.17 140.171 41.3106C140.211 41.2668 140.255 41.2178 140.327 41.2345C140.401 41.2629 140.399 41.3312 140.395 41.3873C140.378 41.651 140.508 41.7406 140.758 41.7303C141.051 41.7187 141.344 41.7219 141.637 41.7277C141.852 41.7322 141.949 41.6349 141.943 41.4228C141.941 41.3306 141.945 41.2384 141.945 41.1462L141.945 41.1468ZM140.175 39.9232C139.96 40.4106 139.578 40.6659 139.055 40.6775C138.555 40.6884 138.156 40.4776 137.918 40.0225C137.528 39.2797 137.517 38.5125 137.831 37.7486C138.047 37.2238 138.476 36.9807 139.041 36.9871C139.593 36.9936 139.969 37.2534 140.186 37.7653C140.334 38.1135 140.405 38.4693 140.379 38.8323C140.401 39.2211 140.327 39.5789 140.175 39.9232H140.175Z" fill="#FFFAFA"/>
<path d="M63.8654 34.1658C63.8731 33.9504 63.766 33.8595 63.5569 33.8615C63.249 33.8647 62.9405 33.8544 62.6326 33.8627C62.2976 33.8718 62.2634 33.9027 62.2589 34.2393C62.2511 34.8698 62.2595 35.501 62.2531 36.1315C62.2518 36.2772 62.3054 36.4403 62.1743 36.5699C62.0704 36.566 62.0091 36.4919 61.9426 36.4326C61.0274 35.6131 59.1111 35.7743 58.394 37.1501C57.7137 38.4557 57.7466 39.767 58.5212 41.012C59.3538 42.3504 61.323 42.371 62.1053 41.4723C62.1518 41.4188 62.2053 41.3479 62.306 41.4059C62.3176 41.4426 62.3363 41.4839 62.3434 41.5271C62.4054 41.8901 62.4048 41.8939 62.7701 41.9004C63.0321 41.9049 63.2942 41.8965 63.5562 41.9004C63.7679 41.9036 63.8699 41.8082 63.8647 41.5961C63.8622 41.4884 63.8667 41.3807 63.8667 41.2731C63.8667 39.0121 63.8667 36.7504 63.8667 34.4894C63.8667 34.3817 63.8615 34.2741 63.8654 34.1664V34.1658ZM61.9872 39.9076C61.7903 40.3834 61.425 40.6367 60.9241 40.6709C60.4459 40.7032 60.0276 40.5297 59.7817 40.1094C59.2937 39.2758 59.2879 38.408 59.7372 37.5589C59.9779 37.1044 60.4168 36.9606 60.9144 36.987C61.4063 37.0135 61.7574 37.2572 61.9646 37.6975C62.1388 38.0676 62.1789 38.4647 62.1576 38.8509C62.1692 39.2261 62.1253 39.5736 61.9872 39.9069V39.9076Z" fill="#FFFAFA"/>
<path d="M31.5227 41.17C31.5227 38.8613 31.5227 36.5525 31.5227 34.2438C31.5227 34.1361 31.5214 34.0285 31.5163 33.9208C31.5092 33.7751 31.4304 33.6913 31.2839 33.69C30.9141 33.6868 30.5442 33.6861 30.1744 33.6913C30.0021 33.6939 29.9324 33.8028 29.9291 33.964C29.9266 34.1026 29.9246 34.2412 29.9246 34.3792C29.9246 35.0549 29.9246 35.7312 29.9246 36.4358C29.7155 36.4094 29.6581 36.2856 29.5638 36.2128C29.2772 35.9916 28.9597 35.8427 28.6008 35.7918C27.2544 35.6029 26.1585 36.3133 25.7777 37.6195C25.5382 38.4409 25.5505 39.259 25.8132 40.0733C25.9726 40.5672 26.245 40.9869 26.6335 41.3357C27.4842 42.099 29.1088 42.0971 29.791 41.2641C29.8368 41.208 29.8865 41.139 29.9924 41.1842C29.9982 41.239 30.004 41.2996 30.0105 41.3595C30.0473 41.7064 30.0466 41.7102 30.3958 41.7186C30.6578 41.7251 30.9199 41.7141 31.1819 41.7206C31.4085 41.7264 31.535 41.6419 31.5221 41.3995C31.5182 41.3228 31.5234 41.2454 31.5234 41.1687L31.5227 41.17ZM29.8465 39.7548C29.6619 40.3157 29.2611 40.6355 28.697 40.6735C28.1729 40.709 27.6759 40.4002 27.4487 39.8863C27.155 39.2216 27.1408 38.5408 27.3777 37.86C27.5849 37.2636 28.0296 36.9651 28.6447 36.9787C29.2359 36.9916 29.6458 37.2998 29.8407 37.8897C29.8885 38.0347 29.9162 38.1875 29.9408 38.339C29.9679 38.5054 29.9795 38.6743 29.9937 38.8013C29.9608 39.1507 29.9433 39.4589 29.8459 39.7542L29.8465 39.7548Z" fill="#FFFAFA"/>
<path d="M114.607 41.38C114.548 41.059 114.543 40.7373 114.543 40.4143C114.543 39.4446 114.549 38.475 114.54 37.5053C114.533 36.7323 114.218 36.2455 113.486 35.9967C112.495 35.6601 111.487 35.6711 110.493 36.0102C110.334 36.0644 110.18 36.1463 110.04 36.2378C109.621 36.5125 109.357 36.8993 109.269 37.3951C109.222 37.6588 109.257 37.7129 109.505 37.7226C109.86 37.7355 110.214 37.7226 110.569 37.7277C110.756 37.731 110.852 37.6401 110.892 37.4673C110.94 37.2616 111.059 37.1043 111.243 37.0018C111.682 36.7594 112.133 36.7703 112.575 36.9773C112.825 37.0946 112.899 37.3325 112.897 37.5962C112.895 37.8631 112.747 38.0237 112.512 38.1165C112.252 38.2203 111.978 38.2558 111.702 38.2906C111.167 38.3576 110.626 38.3944 110.114 38.5852C108.93 39.0281 108.649 40.6335 109.613 41.4555C109.94 41.7346 110.333 41.8604 110.76 41.8919C111.54 41.9493 112.258 41.7778 112.965 41.2537C113.007 41.703 113.257 41.7495 113.565 41.7301C113.811 41.7146 114.059 41.7333 114.305 41.7243C114.638 41.7127 114.665 41.6889 114.607 41.3788V41.38ZM112.87 39.8978C112.774 40.4046 112.413 40.7353 111.896 40.7901C111.7 40.8108 111.496 40.8088 111.3 40.7856C110.953 40.7444 110.715 40.5168 110.666 40.2163C110.61 39.865 110.745 39.5929 111.07 39.4188C111.164 39.3685 111.265 39.3195 111.367 39.2989C111.858 39.1996 112.351 39.1107 112.87 39.0127C112.916 39.3253 112.924 39.6142 112.87 39.8985V39.8978Z" fill="#FFFAFA"/>
<path d="M34.1782 39.2204C34.7642 39.212 35.3503 39.2178 35.937 39.2178V39.2159C36.523 39.2159 37.1097 39.2223 37.6958 39.2133C37.9933 39.2088 38.0482 39.1437 38.0347 38.8516C38.0243 38.6214 38.0134 38.3874 37.9682 38.1624C37.761 37.1367 37.2563 36.3366 36.2371 35.9323C35.7621 35.7434 35.2689 35.7467 34.7771 35.7899C34.0362 35.8556 33.4211 36.1864 32.9447 36.755C32.2618 37.5699 32.105 38.526 32.2825 39.5376C32.4361 40.4118 32.8692 41.1339 33.6908 41.5426C34.6416 42.0159 35.6239 42.0481 36.5934 41.5994C37.1943 41.3215 37.577 40.8225 37.8249 40.2178C37.8765 40.0914 37.8952 39.9528 37.7113 39.945C37.3576 39.9302 37.0026 39.938 36.6483 39.9431C36.5263 39.945 36.4701 40.0476 36.4004 40.1301C35.9776 40.6317 35.4348 40.758 34.8158 40.6149C34.2705 40.4892 33.9419 40.1043 33.8871 39.5479C33.8593 39.2649 33.8838 39.2249 34.1788 39.2204H34.1782ZM33.9232 37.8059C33.9826 37.5899 34.1194 37.4242 34.2814 37.2785C34.9817 36.6506 36.1338 37 36.3449 37.8981C36.3927 38.0999 36.3391 38.1914 36.1313 38.1914C35.7924 38.1908 35.4535 38.1914 35.1153 38.1914C34.8075 38.1914 34.4989 38.2004 34.1917 38.1888C33.9084 38.1785 33.8483 38.0812 33.9239 37.8052L33.9232 37.8059Z" fill="#FFFAFA"/>
<path d="M131.73 39.2228C132.315 39.2132 132.902 39.2202 133.488 39.2202V39.2183C134.058 39.2183 134.629 39.2241 135.199 39.2164C135.541 39.2119 135.563 39.1841 135.566 38.8399C135.568 38.4195 135.474 38.0153 135.341 37.6201C134.73 35.8065 132.447 35.1366 130.928 36.3158C130.198 36.8825 129.824 37.6407 129.761 38.5356C129.685 39.629 129.945 40.6186 130.87 41.3259C131.591 41.8758 132.426 41.9874 133.288 41.8616C134.26 41.7198 134.957 41.1795 135.325 40.2544C135.423 40.0087 135.383 39.9501 135.119 39.9365C134.873 39.9236 134.626 39.9385 134.38 39.9301C134.181 39.9236 134.034 39.9797 133.908 40.1512C133.654 40.4968 133.272 40.656 132.863 40.6689C131.942 40.6979 131.564 40.315 131.414 39.6225C131.347 39.3092 131.409 39.2286 131.73 39.2235V39.2228ZM131.437 37.8122C131.598 37.2913 132.124 36.9573 132.743 36.9831C133.322 37.0069 133.749 37.3577 133.875 37.8999C133.921 38.1017 133.849 38.1926 133.647 38.1926C133.308 38.1926 132.968 38.1926 132.629 38.1926V38.1939C132.321 38.1939 132.012 38.2029 131.704 38.1913C131.415 38.1803 131.353 38.083 131.437 37.8122Z" fill="#FFFAFA"/>
<path d="M187.136 37.9978C186.602 35.8265 184.691 35.3964 183.199 35.9973C182.007 36.477 181.485 37.4614 181.424 38.6864C181.371 39.7695 181.693 40.7295 182.628 41.3858C183.35 41.8926 184.175 41.988 185.018 41.85C185.932 41.7004 186.597 41.1911 186.965 40.3266C187.105 40.0003 187.075 39.9449 186.734 39.9313C186.503 39.9223 186.271 39.9359 186.041 39.9268C185.839 39.9191 185.708 39.9971 185.573 40.1551C185.15 40.6489 184.601 40.763 183.982 40.6096C183.454 40.4787 183.18 40.1215 183.088 39.6077C183.031 39.2931 183.085 39.2254 183.415 39.2202C183.985 39.2118 184.555 39.2176 185.125 39.2176V39.2157C185.711 39.2157 186.297 39.2215 186.882 39.2131C187.194 39.2086 187.223 39.1693 187.237 38.8656C187.249 38.571 187.206 38.2809 187.136 37.9972V37.9978ZM185.322 38.1906C184.982 38.1906 184.643 38.1906 184.304 38.1906V38.1926C183.995 38.1926 183.687 38.2009 183.379 38.19C183.071 38.179 183.033 38.1152 183.119 37.8167C183.274 37.2796 183.765 36.9611 184.409 36.9798C184.983 36.9966 185.422 37.3525 185.542 37.8895C185.585 38.0823 185.531 38.19 185.322 38.19V38.1906Z" fill="#FFFAFA"/>
<path d="M47.0637 39.2258C47.6491 39.2174 48.2345 39.2232 48.8199 39.2232V39.222C49.4053 39.222 49.9907 39.2278 50.5762 39.2194C50.884 39.2149 50.9299 39.1684 50.9189 38.8667C50.9098 38.6217 50.8847 38.3742 50.8363 38.1343C50.418 36.0416 48.6353 35.3904 46.9527 35.9649C46.4918 36.1222 46.1065 36.3981 45.8005 36.7817C45.1512 37.5947 44.9886 38.5237 45.1635 39.523C45.3016 40.3109 45.6579 40.9743 46.3492 41.4243C47.0734 41.8956 47.8789 41.991 48.7037 41.8575C49.619 41.7099 50.276 41.1851 50.6523 40.3315C50.7975 40.0021 50.7672 39.9505 50.4258 39.9376C50.1799 39.9286 49.9326 39.9415 49.6861 39.9337C49.4996 39.9279 49.3711 39.9956 49.2607 40.1516C49.0103 40.5043 48.6295 40.6558 48.2216 40.6732C47.3928 40.708 46.8868 40.3612 46.7648 39.5856C46.7151 39.269 46.7416 39.231 47.063 39.2265L47.0637 39.2258ZM46.8003 37.81C46.8629 37.5966 46.9953 37.4277 47.1586 37.2827C47.8621 36.6573 49.0258 37.0125 49.222 37.9067C49.2672 38.1111 49.2059 38.1988 49.0013 38.1981C48.6779 38.1975 48.3545 38.1981 48.0312 38.1981C47.7078 38.1981 47.3845 38.2072 47.0611 38.1956C46.7784 38.1853 46.7184 38.0866 46.7997 37.81H46.8003Z" fill="#FFFAFA"/>
<path d="M172.01 39.2259C172.581 39.2168 173.152 39.2233 173.723 39.2233V39.2207C174.31 39.2207 174.896 39.2278 175.482 39.2181C175.78 39.213 175.839 39.1504 175.829 38.8584C175.821 38.6127 175.8 38.3639 175.75 38.1241C175.534 37.097 175.03 36.2647 173.986 35.9307C172.929 35.5929 171.904 35.7044 171.034 36.4717C170.128 37.2705 169.887 38.3091 170.062 39.4535C170.178 40.2207 170.516 40.8854 171.176 41.3554C171.899 41.8711 172.713 41.9859 173.559 41.8653C174.535 41.7261 175.225 41.1774 175.6 40.2581C175.699 40.015 175.66 39.9531 175.396 39.9389C175.15 39.926 174.902 39.9409 174.656 39.9325C174.456 39.9254 174.308 39.9834 174.183 40.1549C173.941 40.4895 173.574 40.6417 173.184 40.6687C172.347 40.7274 171.822 40.3748 171.688 39.6256C171.632 39.3097 171.694 39.2317 172.012 39.2265L172.01 39.2259ZM171.698 37.8675C171.751 37.6341 171.888 37.449 172.063 37.2911C172.753 36.6689 173.859 36.9713 174.114 37.8513C174.198 38.1382 174.174 38.1847 173.885 38.1943C173.561 38.2053 173.237 38.1969 172.913 38.1969V38.195C172.589 38.195 172.265 38.2046 171.942 38.1917C171.704 38.1821 171.646 38.0938 171.697 37.8668L171.698 37.8675Z" fill="#FFFAFA"/>
<path d="M67.1229 35.7795C66.0347 35.8736 65.2285 36.3887 64.7464 37.3687C64.3307 38.2132 64.343 39.1023 64.5973 39.9817C64.7877 40.6393 65.195 41.168 65.8056 41.4987C66.8105 42.0428 67.8452 42.0577 68.8695 41.5612C69.4362 41.2866 69.7828 40.7927 70.0164 40.2215C70.1055 40.0043 70.0668 39.952 69.8266 39.9366C69.6575 39.9256 69.4871 39.9424 69.318 39.9308C68.9656 39.9063 68.6978 39.9791 68.4338 40.2776C68.0291 40.7347 67.4592 40.7605 66.8918 40.5871C66.4116 40.4407 66.1748 40.0829 66.0857 39.6097C66.0237 39.2796 66.0573 39.2287 66.3974 39.2235C66.968 39.2158 67.5386 39.2216 68.1091 39.2216V39.2203C68.6797 39.2203 69.2503 39.2254 69.8208 39.2184C70.1881 39.2138 70.2088 39.1842 70.2184 38.8186C70.2539 37.4119 69.3297 35.5886 67.1223 35.7795H67.1229ZM68.2247 38.1946C67.9168 38.2049 67.6083 38.1971 67.3004 38.1971V38.1946C66.9615 38.1946 66.6227 38.1958 66.2838 38.1946C66.0992 38.1939 66.0476 38.0998 66.0825 37.9238C66.187 37.3945 66.655 37.0167 67.2539 36.987C67.8949 36.9554 68.3454 37.243 68.5054 37.7871C68.5958 38.094 68.5403 38.1842 68.2253 38.1952L68.2247 38.1946Z" fill="#FFFAFA"/>
<path d="M97.7081 37.1083C97.1272 36.1438 96.2269 35.7654 95.0302 35.7751C94.2905 35.7512 93.5489 35.9904 92.948 36.5983C92.0341 37.5235 91.8476 39.3255 92.5298 40.5234C93.1778 41.6619 94.539 42.1281 95.9145 41.8173C97.1789 41.5317 97.8966 40.7097 98.0973 39.4273C98.2251 38.6111 98.1393 37.8246 97.7081 37.1083ZM96.3843 39.7845C96.1933 40.3551 95.7802 40.6575 95.1703 40.6839C94.6204 40.7078 94.1408 40.4176 93.9265 39.8928C93.627 39.1592 93.6393 38.4203 93.9646 37.6937C94.195 37.1786 94.6255 36.9852 95.1612 36.989C95.686 36.9929 96.0784 37.2257 96.3088 37.7047C96.4799 38.0599 96.5315 38.439 96.518 38.8336C96.5341 39.1559 96.4883 39.4757 96.385 39.7845H96.3843Z" fill="#FFFAFA"/>
</svg>
